<svg xmlns="http://www.w3.org/2000/svg" width="20" height="20" viewBox="0 0 20 20"><g fill-rule="evenodd"><path d="M3.203 0h13.594c1.113 0 1.516.117 1.922.332s.73.54.945.945S20 2.1 20 3.203v13.6c0 1.113-.117 1.52-.336 1.926a2.25 2.25 0 0 1-.945.945c-.406.215-.81.332-1.922.332H3.203c-1.113 0-1.516-.117-1.922-.332s-.73-.535-.95-.94S0 17.9 0 16.797V3.203C0 2.1.117 1.688.332 1.28s.54-.73.945-.95S2.1 0 3.203 0zm0 0" fill="rgb(56.078431%,73.72549%,36.470588%)"/><path d="M10.832 10a.83.83 0 1 1-1.664 0 .83.83 0 1 1 1.664 0zm0 0" fill="rgb(100%,100%,100%)"/></g><path d="M12.785 13.55l-.012 2.004a.56.56 0 0 1-.559.559c-.305 0-.55-.246-.547-.55l.016-3.32a.56.56 0 0 1 .555-.559l3.324-.016c.305-.004.55.246.55.55a.56.56 0 0 1-.559.555l-2.12.012 3.082 3.082c.19.195.19.5-.004.707-.094.094-.22.148-.352.148s-.262-.05-.352-.145l-3.035-3.035zm-5.57-7.04l.012-2.004a.56.56 0 0 1 .559-.559c.305 0 .55.246.547.55l-.016 3.324c0 .305-.25.555-.555.555l-3.324.016c-.305.004-.55-.242-.55-.547a.56.56 0 0 1 .559-.559l2.12-.012-3.082-3.082c-.19-.195-.19-.5.004-.703.094-.098.22-.152.352-.152s.262.05.352.148l3.035 3.03zm0 7.04l.012 2.004a.56.56 0 0 0 .559.559c.305 0 .55-.246.547-.55l-.016-3.324c0-.305-.25-.555-.555-.555l-3.32-.016c-.305-.004-.55.242-.55.547a.56.56 0 0 0 .559.559l2.12.012-3.082 3.082c-.19.19-.19.5.004.703a.5.5 0 0 0 .352.152.49.49 0 0 0 .352-.148l3.035-3.03zm5.57-7.04l-.012-2.004c0-.31-.25-.555-.56-.555a.54.54 0 0 0-.547.547l.016 3.324c0 .305.25.555.555.555l3.324.016c.305.004.55-.246.55-.55a.56.56 0 0 0-.559-.555l-2.12-.012 3.082-3.082c.19-.195.19-.5-.004-.707a.49.49 0 0 0-.703 0l-3.035 3.03zm0 0" fill="rgb(100%,100%,100%)"/></svg>