<svg xmlns="http://www.w3.org/2000/svg" width="20" height="20" viewBox="0 0 20 20"><g fill-rule="evenodd"><path d="M10 0h6.797c1.113 0 1.516.117 1.922.332s.73.54.945.945S20 2.1 20 3.203v13.6c0 1.113-.117 1.52-.336 1.926a2.25 2.25 0 0 1-.945.945c-.406.215-.81.332-1.922.332H3.203c-1.113 0-1.516-.117-1.922-.332s-.73-.535-.95-.94S0 17.9 0 16.797V10h8.266c.602 0 .82-.062 1.043-.18s.395-.293.512-.512.18-.44.18-1.043zm0 0" fill="rgb(71.764706%,62.745098%,0.392157%)"/><path d="M1.47 0H7.7c.512 0 .695.055.883.152s.336.25.434.434.152.37.152.883V7.7c0 .512-.055.695-.152.883s-.25.336-.434.434-.37.152-.883.152H1.47c-.512 0-.695-.05-.883-.152s-.336-.25-.434-.434S0 8.207 0 7.7V1.47C0 .957.055.773.152.586S.402.25.586.152.957 0 1.47 0zm0 0" fill="rgb(98.431373%,93.72549%,65.882353%)"/></g><path d="M5.55 4.844L5.56 2.84a.56.56 0 0 1 .559-.555c.305-.004.55.242.55.547l-.02 3.324c0 .305-.25.555-.555.555l-3.32.016a.54.54 0 0 1-.551-.547c0-.305.25-.555.555-.56l2.125-.012-3.094-3.1c-.19-.195-.19-.5.004-.703a.49.49 0 0 1 .707-.004zm0 0" fill="rgb(71.764706%,62.745098%,0.392157%)"/><path d="M6.727 12.813v3.203c0 1.133-.594 1.816-1.738 1.816-1.395 0-1.656-.98-1.656-1.516 0-.46.2-.754.555-.754.414 0 .523.348.523.715 0 .352.152.61.566.61.38 0 .594-.3.594-.887v-3.187c0-.367.223-.617.578-.617s.582.25.582.617zM7.8 17.188v-4.172c0-.547.27-.72.68-.72h1.773c.977 0 1.762.508 1.762 1.71 0 .984-.645 1.715-1.766 1.715H8.96v1.465c0 .37-.223.617-.578.617s-.582-.246-.582-.617zm1.16-3.945v1.535h1.082c.465 0 .813-.3.813-.77 0-.54-.36-.766-.934-.766zm8.54 2.11v2.04c0 .223-.164.414-.395.414-.336 0-.426-.22-.496-.703-.332.445-.793.73-1.512.73-1.797 0-2.484-1.316-2.484-2.832 0-1.828 1.078-2.836 2.652-2.836 1.285 0 1.973.82 1.973 1.3 0 .43-.297.543-.547.543-.57 0-.36-.852-1.5-.852-.797 0-1.426.56-1.426 1.926 0 1.066.496 1.805 1.44 1.805.613 0 1.152-.445 1.207-1.105h-.754c-.25 0-.523-.098-.523-.473 0-.3.16-.473.45-.473h1.43c.34 0 .473.18.473.516zm0 0" fill-rule="evenodd" fill="rgb(100%,100%,100%)"/></svg>