<svg xmlns="http://www.w3.org/2000/svg" width="20" height="20" viewBox="0 0 20 20"><path d="M10.7 16v-4.898a1.8 1.8 0 0 0-1.801-1.801L4 9.3V2.563c0-.89.1-1.215.266-1.54S4.7.438 5.023.266 5.672 0 6.563 0h10.875c.89 0 1.215.1 1.54.266s.586.434.758.758.266.648.266 1.54v10.875c0 .89-.1 1.215-.266 1.54s-.434.586-.758.758-.648.266-1.54.266zm0 0" fill-rule="evenodd" fill="rgb(70.196078%,87.45098%,93.72549%)"/><g fill="rgb(15.294118%,55.294118%,69.803922%)"><path d="M16.383 4.387l.012 2.004c0 .305.25.555.555.555s.555-.246.55-.55l-.016-3.32c-.004-.31-.25-.555-.56-.56L13.61 2.5c-.31 0-.555.246-.55.55a.56.56 0 0 0 .555.555l2.125.012-3.1 3.1c-.195.195-.195.5.004.707s.508.195.703.004l3.03-3.035zm0 0"/><g fill-rule="evenodd"><path d="M1.602 10h6.797c.56 0 .75.06.96.168s.363.27.473.473.168.406.168.96v6.797c0 .56-.06.75-.168.96s-.27.363-.473.473-.406.168-.96.168H1.602c-.56 0-.75-.06-.96-.168-.203-.105-.367-.27-.473-.473S0 18.953 0 18.398v-6.797c0-.56.06-.75.168-.96s.27-.363.473-.473.406-.168.96-.168zm0 .8c-.387 0-.484.02-.586.07-.062.035-.11.082-.145.145-.05.102-.07.2-.07.586v6.797c0 .387.02.484.07.586.035.063.082.11.145.145.102.05.2.07.586.07h6.797c.387 0 .484-.02.586-.07.063-.035.11-.082.145-.145.05-.102.07-.2.07-.586v-6.797c0-.387-.02-.484-.07-.586-.035-.062-.082-.11-.145-.145-.102-.05-.2-.07-.586-.07zm2.04 4a1.1 1.1 0 0 1-1.098-1.102 1.1 1.1 0 0 1 1.098-1.098 1.1 1.1 0 0 1 1.102 1.098 1.1 1.1 0 0 1-1.102 1.098zm0 0"/><path d="M9.238 19.6c.168.176.117-2.484.293-2.664.082-.082.13-.195.13-.312s-.047-.23-.13-.316L7.293 14.1c-.176-.172-.46-.172-.633 0l-5.344 5.242c-.168.176.238.086.414.258s.457.176.633 0zm0 0"/></g></g></svg>