<svg xmlns="http://www.w3.org/2000/svg" width="20" height="20" viewBox="0 0 20 20"><path d="M3.203 0h13.594c1.113 0 1.516.117 1.922.332s.73.54.945.945S20 2.1 20 3.203v13.6c0 1.113-.117 1.52-.336 1.926a2.25 2.25 0 0 1-.945.945c-.406.215-.81.332-1.922.332H3.203c-1.113 0-1.516-.117-1.922-.332s-.73-.535-.95-.94S0 17.9 0 16.797V3.203C0 2.1.117 1.688.332 1.28s.54-.73.945-.95S2.1 0 3.203 0zm0 0" fill-rule="evenodd" fill="rgb(23.529412%,71.372549%,88.627451%)"/><g fill="rgb(100%,100%,100%)"><path d="M9.348 5.305a.5.5 0 0 1 .551.434c.035.27-.156.52-.426.56C7.332 6.57 5.7 8.38 5.7 10.55c0 1.762 1.078 3.313 2.69 3.973.25.11.363.395.262.645a.5.5 0 0 1-.637.281c-1.984-.81-3.312-2.723-3.312-4.898 0-2.68 2.012-4.9 4.645-5.246zm5.9 4.582a.5.5 0 1 1-.992.141 4.48 4.48 0 0 0-.359-1.262c-.082-.164-.066-.36.04-.508s.28-.23.465-.21a.5.5 0 0 1 .406.305c.22.484.363.992.44 1.535zm-4.574 5.918a.5.5 0 0 1-.566-.422.5.5 0 0 1 .422-.566c.43-.06.844-.176 1.238-.348a.49.49 0 0 1 .5.047.5.5 0 0 1 .207.461c-.02.18-.137.336-.3.406a5.76 5.76 0 0 1-1.5.422zm3.516-2a.5.5 0 0 1-.699.102.5.5 0 0 1-.102-.699 4.77 4.77 0 0 0 .652-1.148c.098-.258.387-.387.645-.285a.5.5 0 0 1 .289.645c-.184.473-.445.934-.785 1.39zm0 0"/><path d="M9.71 8.398c-.168 0-.312-.14-.312-.312V3.71a.32.32 0 0 1 .313-.312c.086 0 .164.035.223.094L12.12 5.68c.06.06.1.137.1.22s-.03.16-.1.223L9.934 8.31c-.06.06-.137.1-.22.1zm0 0" fill-rule="evenodd"/></g></svg>