<svg xmlns="http://www.w3.org/2000/svg" width="20" height="20" viewBox="0 0 20 20"><path d="M3.203 0h13.602c1.113 0 1.52.117 1.926.336.402.21.734.54.945.94.22.4.336.812.336 1.926v13.602c0 1.113-.117 1.52-.336 1.926a2.25 2.25 0 0 1-.945.945c-.406.22-.812.336-1.926.336H3.203c-1.113 0-1.52-.117-1.926-.336-.402-.21-.73-.543-.94-.945-.22-.418-.336-.832-.336-1.934V3.195C0 2.102.117 1.688.336 1.28c.21-.402.54-.734.94-.945.4-.22.824-.336 1.926-.336zm0 0" fill-rule="evenodd" fill="rgb(67.058824%,41.176471%,57.647059%)"/><path d="M9.082 9c0 .344-.437 1.207-.844 1.867-.04.063-.05.137-.03.207.03.102.13.19.242.19h3.102a.25.25 0 0 0 .223-.145c.043-.086.035-.19-.02-.27-.578-.785-.836-1.36-.836-1.852s.258-1.062.836-1.855c.266-.37.406-.82.406-1.277 0-1.207-.973-2.2-2.16-2.2s-2.16.984-2.16 2.2a2.21 2.21 0 0 0 .406 1.281c.578.8.836 1.36.836 1.855zm5.61 2.633H5.3c-.14 0-.254.113-.254.258v2.586c0 .14.113.254.254.254h9.38c.137 0 .254-.113.254-.254v-2.578c0-.14-.117-.254-.254-.254zm-1.437 3.47H6.746c-.14 0-.254.113-.254.254v.293c0 .14.113.258.254.258h6.508c.14 0 .254-.117.254-.258v-.293c0-.14-.113-.254-.254-.254zm0 0" fill="rgb(100%,100%,100%)"/></svg>